<?xml version="1.0" encoding="UTF-8" standalone="no"?><!DOCTYPE svg PUBLIC "-//W3C//DTD SVG 1.1//EN" "http://www.w3.org/Graphics/SVG/1.1/DTD/svg11.dtd"><svg width="100%" height="100%" viewBox="0 0 300 52" version="1.1" xmlns="http://www.w3.org/2000/svg" xmlns:xlink="http://www.w3.org/1999/xlink" xml:space="preserve" xmlns:serif="http://www.serif.com/" style="fill-rule:evenodd;clip-rule:evenodd;stroke-linejoin:round;stroke-miterlimit:1.41421;"><g id="beachbody_logo"><path d="M20.912,0.378c-0.035,0.033 -0.479,0.13 -0.981,0.217c-1.939,0.347 -4.824,1.422 -6.821,2.54c-0.83,0.467 -1.881,1.118 -2.185,1.367c-0.07,0.055 -0.525,0.402 -1.016,0.76c-1.156,0.858 -1.156,0.988 0.024,1.085c0.49,0.033 1.004,0.109 1.133,0.163c0.128,0.044 0.817,0.141 1.518,0.206c1.215,0.12 2.009,0.239 4.03,0.597c1.401,0.239 2.149,0.402 2.394,0.5c0.128,0.054 0.631,0.195 1.109,0.325c3.68,0.988 4.591,2.529 2.547,4.287c-0.736,0.641 -1.063,0.858 -3.037,2.063c-2.593,1.573 -4.146,2.843 -4.637,3.787c-0.292,0.543 -0.304,0.738 -0.082,1.129c0.409,0.738 1.717,1.216 3.878,1.433c0.631,0.065 1.238,0.141 1.331,0.184c0.094,0.033 3.983,0.098 8.644,0.141c4.66,0.055 9.46,0.142 10.686,0.218c3.329,0.184 7.3,0.738 8.41,1.193c0.128,0.044 0.455,0.163 0.736,0.261l0.502,0.174l-0.07,-0.402c-0.047,-0.228 -0.152,-0.76 -0.234,-1.172c-0.081,-0.423 -0.187,-0.977 -0.233,-1.248c-0.129,-0.825 -0.9,-3.354 -1.238,-4.07c-0.059,-0.12 -0.199,-0.467 -0.327,-0.76c-0.631,-1.541 -2.033,-3.962 -3.142,-5.416c-1.413,-1.856 -3.855,-4.233 -5.571,-5.405c-2.862,-1.975 -5.875,-3.289 -9.099,-3.951c-1.191,-0.239 -1.507,-0.26 -4.742,-0.26c-1.904,0 -3.492,0.021 -3.527,0.054Z" style="fill:#B2B6BC;fill-rule:nonzero;"/><path d="M7.62,7.313c-3.621,3.539 -6.365,8.803 -7.183,13.795c-0.409,2.486 -0.455,2.931 -0.432,4.993c0.035,4.385 1.004,8.379 2.943,12.047c0.829,1.563 2.009,3.462 2.336,3.745c0.035,0.032 0.292,0.347 0.572,0.705c1.017,1.281 2.325,2.583 3.82,3.81l0.712,0.586l1.507,-0.608c2.71,-1.107 3.013,-1.237 5.361,-2.247c1.542,-0.673 7.884,-3.625 8.877,-4.124c1.074,-0.553 2.639,-1.389 3.095,-1.65c0.222,-0.13 0.911,-0.532 1.518,-0.879c1.659,-0.955 2.932,-1.769 4.368,-2.789c0.888,-0.63 2.535,-2.073 3.189,-2.8c0.409,-0.435 0.923,-1.151 1.156,-1.585c0.374,-0.684 0.432,-0.879 0.421,-1.53c0,-0.445 -0.07,-0.879 -0.176,-1.064c-0.28,-0.499 -1.121,-1.335 -1.588,-1.574c-0.234,-0.108 -0.502,-0.249 -0.596,-0.315c-0.327,-0.184 -2.266,-0.846 -3.212,-1.085c-0.514,-0.13 -1.039,-0.282 -1.168,-0.325c-0.233,-0.087 -2.02,-0.402 -3.971,-0.706c-1.32,-0.195 -3.761,-0.456 -5.139,-0.543c-0.572,-0.032 -1.366,-0.108 -1.752,-0.162c-0.385,-0.055 -2.009,-0.185 -3.62,-0.283c-2.769,-0.162 -3.586,-0.228 -5.981,-0.477c-1.436,-0.141 -3.317,-0.423 -3.597,-0.532c-0.128,-0.054 -0.572,-0.184 -0.981,-0.293c-0.969,-0.25 -1.6,-0.684 -1.752,-1.183c-0.362,-1.227 1.226,-2.811 5.419,-5.405c1.752,-1.075 2.068,-1.292 2.792,-1.856c0.829,-0.662 1.448,-1.444 1.658,-2.106c0.152,-0.455 0.152,-0.564 -0.011,-0.966c-0.456,-1.107 -2.009,-1.866 -5.548,-2.68c-0.678,-0.163 -1.507,-0.326 -1.846,-0.38l-0.619,-0.087l-0.572,0.553Z" style="fill:#B2B6BC;fill-rule:nonzero;"/><path d="M296.587,17.244c-0.184,0.044 -0.564,0.239 -0.846,0.435c-1.802,1.248 -1.791,4.037 0.011,5.339c0.499,0.348 0.564,0.369 1.443,0.369c0.869,0 0.955,-0.021 1.39,-0.336c1.041,-0.771 1.508,-1.802 1.4,-3.061c-0.087,-0.911 -0.402,-1.53 -1.053,-2.127c-0.706,-0.629 -1.455,-0.825 -2.345,-0.619Zm1.346,1.151c1.487,0.749 1.455,3.212 -0.043,3.864c-0.619,0.26 -0.76,0.26 -1.313,-0.011c-0.554,-0.261 -0.977,-0.76 -1.075,-1.259c-0.119,-0.673 0,-1.606 0.271,-1.976c0.489,-0.694 1.455,-0.965 2.16,-0.618Z" style="fill:#B2B6BC;fill-rule:nonzero;"/><path d="M296.305,18.623c-0.054,0.043 -0.087,0.835 -0.087,1.747l0,1.672l0.413,-0.033l0.401,-0.032l-0.01,-0.543l0,-0.543l0.249,0.565c0.25,0.531 0.293,0.575 0.641,0.575c0.51,0 0.553,-0.206 0.184,-0.89l-0.304,-0.575l0.304,-0.315c0.369,-0.391 0.391,-0.868 0.044,-1.303c-0.218,-0.271 -0.337,-0.314 -1.01,-0.358c-0.412,-0.032 -0.781,-0.021 -0.825,0.033Z" style="fill:#B2B6BC;fill-rule:nonzero;"/><path d="M140.905,17.331c-0.261,0.022 -0.532,0.087 -0.597,0.13c-0.054,0.055 -0.25,0.12 -0.423,0.163c-0.445,0.109 -1.433,0.782 -1.748,1.194c-0.467,0.63 -0.803,1.368 -0.998,2.269c-0.163,0.77 -0.196,1.432 -0.196,4.742c0,3.354 0.022,3.984 0.206,4.885c0.12,0.564 0.239,1.052 0.272,1.085c0.032,0.032 0.184,0.282 0.325,0.575c0.478,0.944 1.563,1.715 2.855,2.019c0.727,0.174 10.3,0.163 11.222,-0.011c0.38,-0.065 0.695,-0.163 0.695,-0.217c0,-0.043 0.087,-0.087 0.195,-0.087c0.532,0 1.422,-0.846 1.846,-1.736c0.26,-0.565 0.282,-0.706 0.282,-2.28l0.011,-1.682l-0.977,0l-0.977,0l-0.076,1.227c-0.119,1.899 -0.499,2.42 -1.889,2.626c-1.02,0.141 -8.693,0.141 -9.529,-0.011c-0.857,-0.152 -1.443,-0.553 -1.791,-1.237l-0.282,-0.532l-0.033,-4.298c-0.021,-2.887 0.011,-4.45 0.087,-4.775c0.185,-0.738 0.586,-1.249 1.281,-1.596l0.597,-0.304l4.982,0c3.191,0 5.003,0.044 5.057,0.109c0.044,0.054 0.218,0.184 0.391,0.271c0.174,0.087 0.402,0.282 0.51,0.434c0.217,0.293 0.532,1.737 0.532,2.41l0,0.412l1.954,0l0,-1.281c0,-1.259 -0.033,-1.421 -0.521,-2.626c-0.152,-0.402 -1.096,-1.227 -1.65,-1.455c-0.271,-0.108 -0.586,-0.249 -0.705,-0.325c-0.152,-0.087 -1.704,-0.12 -5.319,-0.13c-2.8,-0.011 -5.318,0.01 -5.589,0.032Z" style="fill:#B2B6BC;fill-rule:nonzero;"/><path d="M223.663,17.331c-0.239,0.022 -0.478,0.098 -0.532,0.152c-0.065,0.054 -0.185,0.098 -0.271,0.098c-0.348,0 -1.27,0.532 -1.715,0.977c-1.281,1.28 -1.607,2.974 -1.531,7.923c0.055,3.44 0.174,4.439 0.673,5.557c0.521,1.172 1.628,2.04 3.018,2.355c0.749,0.174 11.048,0.163 11.971,-0.011c0.391,-0.076 0.706,-0.174 0.706,-0.217c0,-0.054 0.065,-0.087 0.141,-0.087c0.238,0 0.966,-0.445 1.291,-0.792c0.63,-0.684 0.944,-1.248 1.183,-2.149c0.239,-0.858 0.25,-1.161 0.293,-4.863c0.033,-3.711 0.022,-4.037 -0.195,-5.101c-0.271,-1.313 -0.706,-2.149 -1.444,-2.778c-0.455,-0.402 -1.237,-0.814 -1.508,-0.814c-0.087,0 -0.217,-0.065 -0.282,-0.141c-0.109,-0.098 -1.422,-0.131 -5.753,-0.141c-3.082,-0.011 -5.806,0.01 -6.045,0.032Zm11.559,2.475c0.325,0.173 0.705,0.488 0.835,0.694c0.489,0.738 0.521,1.021 0.521,5.384c0,3.733 -0.021,4.178 -0.206,4.743c-0.217,0.684 -0.532,1.031 -1.259,1.411c-0.488,0.249 -0.499,0.249 -5.372,0.282c-3.235,0.022 -5.112,-0.011 -5.579,-0.087c-1.129,-0.195 -1.845,-0.847 -2.062,-1.867c-0.163,-0.738 -0.152,-8.107 0,-8.921c0.152,-0.706 0.781,-1.542 1.27,-1.65c0.163,-0.043 0.347,-0.109 0.401,-0.152c0.217,-0.174 0.836,-0.195 5.807,-0.174l5.047,0.011l0.597,0.326Z" style="fill:#B2B6BC;fill-rule:nonzero;"/><path d="M62.727,17.44c-0.043,0.032 -0.076,3.842 -0.076,8.455l0,8.4l0.26,0.065c0.489,0.12 14.023,0 14.186,-0.13c0.087,-0.065 0.304,-0.152 0.478,-0.195c0.868,-0.206 1.91,-1.194 2.257,-2.128c0.271,-0.727 0.261,-3.798 0,-4.656c-0.25,-0.803 -0.977,-1.563 -1.65,-1.747l-0.477,-0.119l0.315,-0.163c0.455,-0.239 0.9,-0.684 1.161,-1.183c0.217,-0.391 0.239,-0.597 0.239,-2.171c0,-1.715 0,-1.747 -0.337,-2.453c-0.477,-1.009 -1.389,-1.671 -2.464,-1.802c-0.282,-0.032 -0.542,-0.108 -0.575,-0.152c-0.065,-0.108 -13.208,-0.13 -13.317,-0.021Zm13.078,2.268c1.194,0.304 1.39,0.63 1.39,2.344c0,1.455 -0.152,1.856 -0.814,2.225c-0.424,0.228 -0.51,0.228 -5.883,0.239l-5.448,0.011l-0.033,-2.496l-0.032,-2.497l5.068,0c4.287,0 5.166,0.022 5.752,0.174Zm1.064,7.348c0.673,0.326 0.803,0.695 0.847,2.257c0.054,1.715 -0.12,2.225 -0.858,2.584c-0.456,0.217 -0.629,0.228 -6.143,0.228l-5.676,0l0,-5.373l5.72,0.054c5.198,0.055 5.763,0.076 6.11,0.25Z" style="fill:#B2B6BC;fill-rule:nonzero;"/><path d="M88.667,17.44c-0.044,0.032 -0.076,3.842 -0.076,8.455c0,7.543 0.022,8.379 0.174,8.444c0.097,0.032 3.418,0.065 7.38,0.065l7.207,0l0,-2.279l-6.241,0l-6.241,0l0,-5.373l11.885,0l0.032,-1.118l0.033,-1.107l-5.98,0l-5.97,0l0,-4.993l12.493,0l-0.033,-1.063l-0.033,-1.053l-7.282,-0.033c-4.005,-0.01 -7.316,0.011 -7.348,0.055Z" style="fill:#B2B6BC;fill-rule:nonzero;"/><path d="M118.395,17.841c-0.152,0.272 -0.283,0.532 -0.283,0.597c0,0.055 -0.065,0.174 -0.13,0.25c-0.076,0.076 -0.249,0.38 -0.391,0.684c-0.141,0.293 -0.336,0.662 -0.434,0.814c-0.097,0.152 -0.184,0.293 -0.184,0.325c-0.011,0.033 -0.098,0.228 -0.206,0.434c-0.413,0.76 -1.194,2.258 -1.878,3.582c-0.391,0.749 -0.792,1.498 -0.901,1.682c-0.108,0.174 -0.456,0.836 -0.781,1.466c-0.337,0.629 -0.717,1.356 -0.869,1.628c-0.152,0.271 -0.618,1.15 -1.031,1.953c-1.096,2.106 -1.335,2.54 -1.454,2.659c-0.054,0.055 -0.098,0.185 -0.098,0.293c0,0.174 0.12,0.196 1.129,0.196c0.619,0 1.205,-0.022 1.281,-0.054c0.087,-0.033 0.542,-0.815 1.02,-1.737l0.857,-1.682l11.766,0l0.64,1.27c0.912,1.79 1.042,2.029 1.161,2.116c0.065,0.043 0.63,0.087 1.281,0.087c1.042,0 1.161,-0.022 1.161,-0.196c0,-0.108 -0.043,-0.238 -0.097,-0.303c-0.055,-0.055 -0.326,-0.511 -0.586,-1.021c-0.261,-0.51 -0.88,-1.704 -1.379,-2.659c-0.499,-0.955 -1.129,-2.149 -1.411,-2.659c-0.282,-0.51 -0.868,-1.606 -1.302,-2.442c-0.434,-0.836 -0.901,-1.737 -1.053,-2.008c-0.293,-0.543 -1.422,-2.681 -2.214,-4.189c-0.879,-1.704 -0.695,-1.563 -2.106,-1.563l-1.226,0l-0.282,0.477Zm2.225,3.267c0.379,0.717 0.89,1.693 1.139,2.171c0.261,0.477 0.717,1.357 1.02,1.954c0.315,0.596 0.836,1.584 1.151,2.203c0.326,0.608 0.586,1.129 0.586,1.161c0,0.033 -2.073,0.054 -4.613,0.054c-2.539,0 -4.612,-0.01 -4.612,-0.032c0,-0.022 0.499,-0.988 1.117,-2.149c0.608,-1.161 1.379,-2.616 1.694,-3.245c0.325,-0.63 0.803,-1.531 1.063,-2.008c0.261,-0.478 0.532,-0.999 0.608,-1.162c0.065,-0.162 0.13,-0.282 0.141,-0.271c0.011,0.011 0.326,0.608 0.706,1.324Z" style="fill:#B2B6BC;fill-rule:nonzero;"/><path d="M164.37,25.851l0.033,8.499l2.17,0l0.033,-3.799l0.022,-3.799l12.97,0l0.054,3.799l0.054,3.799l2.171,0l0,-16.932l-1.086,0l-1.085,0l-0.032,3.549l-0.022,3.56l-6.512,0l-6.512,0l-0.022,-3.56l-0.033,-3.549l-1.118,-0.033l-1.107,-0.032l0.022,8.498Z" style="fill:#B2B6BC;fill-rule:nonzero;"/><path d="M193.067,17.537c-0.033,0.087 -0.065,3.929 -0.065,8.52l0,8.358l7.141,-0.033c5.167,-0.022 7.196,-0.065 7.348,-0.163c0.119,-0.065 0.456,-0.206 0.738,-0.304c0.782,-0.282 1.4,-0.857 1.823,-1.725l0.37,-0.738l-0.011,-1.921c-0.011,-1.748 -0.033,-1.954 -0.25,-2.442c-0.38,-0.804 -1.009,-1.422 -1.617,-1.585c-0.326,-0.098 -0.434,-0.163 -0.315,-0.185c0.434,-0.108 1.075,-0.749 1.378,-1.4c0.218,-0.423 0.228,-0.618 0.196,-2.181c-0.033,-1.65 -0.044,-1.737 -0.347,-2.345c-0.5,-0.976 -1.325,-1.584 -2.497,-1.845c-0.358,-0.076 -2.887,-0.13 -7.185,-0.152c-6.002,-0.032 -6.642,-0.021 -6.707,0.141Zm13.078,2.171c1.259,0.326 1.4,0.565 1.4,2.366c0,1.433 -0.152,1.834 -0.814,2.203c-0.434,0.25 -0.434,0.25 -5.882,0.25l-5.46,0l0,-4.993l5.036,0c4.277,0 5.145,0.022 5.72,0.174Zm-3.104,7.131c4.417,0.032 4.461,0.032 4.841,0.901c0.195,0.445 0.217,0.673 0.184,1.932c-0.043,1.639 -0.13,1.877 -0.868,2.235c-0.434,0.207 -0.662,0.218 -6.132,0.218l-5.677,0l0,-5.373l1.921,0.022c1.064,0.021 3.647,0.043 5.731,0.065Z" style="fill:#B2B6BC;fill-rule:nonzero;"/><path d="M248.648,17.44c-0.044,0.032 -0.076,3.842 -0.076,8.455c0,7.543 0.021,8.379 0.173,8.444c0.25,0.097 11.635,0.054 12.851,-0.044c1.443,-0.119 2.485,-0.412 3.093,-0.868c1.27,-0.955 1.986,-2.388 2.225,-4.407c0.141,-1.248 0.141,-5.133 0,-6.381c-0.163,-1.411 -0.543,-2.551 -1.107,-3.332c-0.369,-0.511 -1.335,-1.249 -1.769,-1.357c-0.174,-0.044 -0.38,-0.12 -0.445,-0.163c-0.337,-0.26 -2.355,-0.358 -8.466,-0.391c-3.527,-0.021 -6.436,0 -6.479,0.044Zm13.295,2.257c1.335,0.217 1.758,0.478 2.203,1.357c0.912,1.769 0.912,7.825 0,9.627c-0.228,0.467 -0.976,1.107 -1.367,1.194c-0.174,0.032 -0.347,0.108 -0.38,0.152c-0.033,0.054 -2.637,0.098 -5.807,0.098l-5.741,0l0,-12.591l5.079,0c3.864,0 5.297,0.044 6.013,0.163Z" style="fill:#B2B6BC;fill-rule:nonzero;"/><path d="M273.318,17.548c0.01,0.109 0.141,0.348 0.303,0.532c0.163,0.185 0.804,0.923 1.433,1.628c0.63,0.706 1.878,2.117 2.757,3.137c1.975,2.257 1.997,2.279 3.028,3.44l0.836,0.934l0,3.538l0,3.538l0.249,0.055c0.131,0.032 0.63,0.054 1.107,0.032l0.869,-0.032l0.108,-7.099l1.585,-1.823c0.879,-0.999 2.236,-2.562 3.028,-3.451c0.792,-0.901 1.878,-2.139 2.42,-2.768c0.554,-0.63 1.086,-1.205 1.183,-1.281c0.109,-0.076 0.196,-0.239 0.196,-0.358c0,-0.195 -0.087,-0.206 -1.379,-0.206l-1.389,0l-1.302,1.487c-1.487,1.693 -2.627,2.995 -4.331,4.905l-1.172,1.335l-0.575,-0.64c-0.782,-0.879 -5.101,-5.807 -5.698,-6.501l-0.489,-0.575l-1.378,0c-1.259,-0.011 -1.389,0.01 -1.389,0.173Z" style="fill:#B2B6BC;fill-rule:nonzero;"/><path d="M47.728,29.932c-2.616,2.377 -7.299,5.438 -11.352,7.413c-0.211,0.109 -0.456,0.239 -0.538,0.304c-0.186,0.141 -6.762,3.223 -7.837,3.668c-0.444,0.185 -1.179,0.5 -1.635,0.684c-0.444,0.185 -1.004,0.413 -1.226,0.499c-0.222,0.098 -0.514,0.207 -0.643,0.261c-3.445,1.411 -12.38,4.558 -12.952,4.558c-0.106,0 -0.187,0.087 -0.187,0.196c0,0.38 3.702,2.333 5.606,2.941c0.42,0.141 0.864,0.293 0.993,0.337c0.128,0.054 0.712,0.195 1.284,0.325c0.584,0.12 1.215,0.272 1.402,0.326c0.199,0.054 1.145,0.152 2.102,0.217c1.822,0.108 4.988,0 5.712,-0.217c0.198,-0.054 0.864,-0.206 1.471,-0.337c0.608,-0.119 1.274,-0.293 1.46,-0.369c0.199,-0.076 0.643,-0.228 0.993,-0.325c0.946,-0.283 3.528,-1.542 4.672,-2.28c2.792,-1.78 5.221,-4.026 6.926,-6.403c0.292,-0.423 0.631,-0.879 0.748,-1.031c0.514,-0.673 1.857,-3.159 2.394,-4.45c0.724,-1.737 1.297,-3.701 1.67,-5.752c0.105,-0.565 0.222,-1.162 0.246,-1.335c0.035,-0.163 0.023,-0.294 -0.035,-0.294c-0.059,0 -0.631,0.478 -1.274,1.064Z" style="fill:#B2B6BC;fill-rule:nonzero;"/></g></svg>