<?xml version="1.0"?>
<svg xmlns="http://www.w3.org/2000/svg" xmlns:xlink="http://www.w3.org/1999/xlink" version="1.1" id="Capa_1" x="0px" y="0px" viewBox="0 0 512 512" style="enable-background:new 0 0 512 512;" xml:space="preserve" width="512px" height="512px"><g><g>
	<g>
		<path d="M100.031,278.965V169.076c0-9.862,8.023-17.886,17.886-17.886h13.107c5.521,0,9.998-4.476,9.998-9.998    c0-5.522-4.477-9.998-9.998-9.998h-13.107c-20.889,0-37.882,16.994-37.882,37.882v109.889    c-44.928,4.99-79.984,43.187-79.984,89.423v53.629C0.051,471.634,40.417,512,90.033,512s89.982-40.366,89.982-89.982v-53.629    C180.015,322.153,144.959,283.955,100.031,278.965z M160.019,422.018c0,38.59-31.395,69.986-69.986,69.986    s-69.986-31.396-69.986-69.986v-53.629c0-38.59,31.395-69.986,69.986-69.986s69.986,31.396,69.986,69.986V422.018z" data-original="#000000" class="active-path" data-old_color="#000000" fill="#F63954"/>
	</g>
</g><g>
	<g>
		<path d="M132.321,374.264h-32.29v-42.364c0-5.521-4.477-9.998-9.998-9.998c-5.521,0-9.998,4.477-9.998,9.998v42.364h-32.29    c-5.521,0-9.998,4.477-9.998,9.998c0,5.521,4.477,9.998,9.998,9.998h84.575c5.521,0,9.998-4.477,9.998-9.998    C142.319,378.742,137.842,374.264,132.321,374.264z" data-original="#000000" class="active-path" data-old_color="#000000" fill="#F63954"/>
	</g>
</g><g>
	<g>
		<path d="M133.928,412.02c-5.521,0-9.998,4.477-9.998,9.998c0,18.691-15.206,33.897-33.897,33.897    c-5.521,0-9.998,4.477-9.998,9.998c0,5.521,4.477,9.998,9.998,9.998c29.717,0,53.893-24.177,53.893-53.893    C143.926,416.497,139.45,412.02,133.928,412.02z" data-original="#000000" class="active-path" data-old_color="#000000" fill="#F63954"/>
	</g>
</g><g>
	<g>
		<path d="M509.02,74.692L437.245,2.927C435.37,1.053,432.828,0,430.176,0H256c-5.521,0-9.998,4.476-9.998,9.998v296.941    c0,5.521,4.477,9.998,9.998,9.998h245.951c5.521,0,9.998-4.477,9.998-9.998V81.763C511.949,79.11,510.895,76.568,509.02,74.692z     M440.174,34.133l37.648,37.642h-37.648V34.133z M491.953,296.941H265.998V19.996h154.18v61.777c0,5.522,4.477,9.998,9.998,9.998    h61.777V296.941z" data-original="#000000" class="active-path" data-old_color="#000000" fill="#F63954"/>
	</g>
</g><g>
	<g>
		<path d="M451.961,131.195H305.99c-5.521,0-9.998,4.476-9.998,9.998s4.477,9.998,9.998,9.998h145.971    c5.521,0,9.998-4.476,9.998-9.998S457.482,131.195,451.961,131.195z" data-original="#000000" class="active-path" data-old_color="#000000" fill="#F63954"/>
	</g>
</g><g>
	<g>
		<path d="M451.961,187.184H305.99c-5.521,0-9.998,4.476-9.998,9.998c0,5.522,4.477,9.998,9.998,9.998h145.971    c5.521,0,9.998-4.476,9.998-9.998C461.959,191.66,457.482,187.184,451.961,187.184z" data-original="#000000" class="active-path" data-old_color="#000000" fill="#F63954"/>
	</g>
</g><g>
	<g>
		<path d="M413.636,243.173H370.31c-5.521,0-9.998,4.476-9.998,9.998c0,5.522,4.477,9.998,9.998,9.998h43.325    c5.521,0,9.998-4.477,9.998-9.998C423.634,247.65,419.156,243.173,413.636,243.173z" data-original="#000000" class="active-path" data-old_color="#000000" fill="#F63954"/>
	</g>
</g><g>
	<g>
		<path d="M459.029,246.102c-1.859-1.86-4.438-2.929-7.068-2.929c-2.63,0-5.209,1.07-7.069,2.929s-2.929,4.439-2.929,7.069    c0,2.629,1.069,5.209,2.929,7.069c1.86,1.859,4.439,2.929,7.069,2.929c2.629,0,5.209-1.07,7.068-2.929    c1.86-1.86,2.93-4.439,2.93-7.069C461.959,250.541,460.889,247.962,459.029,246.102z" data-original="#000000" class="active-path" data-old_color="#000000" fill="#F63954"/>
	</g>
</g><g>
	<g>
		<path d="M367.156,75.206h-22.433c-5.521,0-9.998,4.476-9.998,9.998s4.477,9.998,9.998,9.998h22.433    c5.521,0,9.998-4.476,9.998-9.998S372.677,75.206,367.156,75.206z" data-original="#000000" class="active-path" data-old_color="#000000" fill="#F63954"/>
	</g>
</g><g>
	<g>
		<path d="M313.058,78.135c-1.859-1.86-4.429-2.929-7.068-2.929c-2.629,0-5.209,1.07-7.069,2.929s-2.929,4.429-2.929,7.069    c0,2.629,1.069,5.209,2.929,7.069c1.861,1.86,4.439,2.929,7.069,2.929c2.639,0,5.209-1.07,7.068-2.929    c1.86-1.86,2.93-4.439,2.93-7.069C315.988,82.565,314.918,79.995,313.058,78.135z" data-original="#000000" class="active-path" data-old_color="#000000" fill="#F63954"/>
	</g>
</g><g>
	<g>
		<path d="M220.921,131.507H202.34c-5.521,0-9.998,4.476-9.998,9.998s4.477,9.998,9.998,9.998h18.581    c5.521,0,9.998-4.476,9.998-9.998S226.443,131.507,220.921,131.507z" data-original="#000000" class="active-path" data-old_color="#000000" fill="#F63954"/>
	</g>
</g><g>
	<g>
		<path d="M174.835,134.434c-1.859-1.86-4.438-2.929-7.068-2.929s-5.209,1.07-7.069,2.929c-1.86,1.87-2.929,4.439-2.929,7.069    c0,2.63,1.069,5.209,2.929,7.069c1.861,1.86,4.439,2.929,7.069,2.929s5.209-1.07,7.068-2.929c1.86-1.86,2.93-4.439,2.93-7.069    C177.766,138.873,176.696,136.294,174.835,134.434z" data-original="#000000" class="active-path" data-old_color="#000000" fill="#F63954"/>
	</g>
</g><g>
	<g>
		<path d="M192.283,83.575c-3.903-3.904-10.232-3.904-14.14,0L165.108,96.61c-3.904,3.904-3.904,10.235,0,14.139    c1.954,1.953,4.512,2.928,7.071,2.928s5.117-0.977,7.07-2.928l13.034-13.034C196.187,93.81,196.187,87.48,192.283,83.575z" data-original="#000000" class="active-path" data-old_color="#000000" fill="#F63954"/>
	</g>
</g><g>
	<g>
		<path d="M192.773,184.67l-13.469-13.47c-3.904-3.904-10.233-3.904-14.14,0c-3.904,3.904-3.904,10.235,0,14.139l13.47,13.47    c1.953,1.953,4.511,2.928,7.07,2.928c2.559,0,5.117-0.977,7.07-2.928C196.677,194.905,196.677,188.574,192.773,184.67z" data-original="#000000" class="active-path" data-old_color="#000000" fill="#F63954"/>
	</g>
</g></g> </svg>
