<?xml version="1.0" encoding="UTF-8"?>
<svg width="100" height="21" version="1.1" viewBox="0 0 100 21.000001" xmlns="http://www.w3.org/2000/svg" xmlns:cc="http://creativecommons.org/ns#" xmlns:dc="http://purl.org/dc/elements/1.1/" xmlns:rdf="http://www.w3.org/1999/02/22-rdf-syntax-ns#">
<title>Discovery Channel logo</title>
<metadata>
<rdf:RDF>
<cc:Work rdf:about="">
<dc:format>image/svg+xml</dc:format>
<dc:type rdf:resource="http://purl.org/dc/dcmitype/StillImage"/>
<dc:title>Discovery Channel logo</dc:title>
<cc:license rdf:resource="http://scripts.sil.org/OFL"/>
</cc:Work>
<cc:License rdf:about="http://scripts.sil.org/OFL">
<cc:permits rdf:resource="http://scripts.sil.org/pub/OFL/Reproduction"/>
<cc:permits rdf:resource="http://scripts.sil.org/pub/OFL/Distribution"/>
<cc:permits rdf:resource="http://scripts.sil.org/pub/OFL/Embedding"/>
<cc:permits rdf:resource="http://scripts.sil.org/pub/OFL/DerivativeWorks"/>
<cc:requires rdf:resource="http://scripts.sil.org/pub/OFL/Notice"/>
<cc:requires rdf:resource="http://scripts.sil.org/pub/OFL/Attribution"/>
<cc:requires rdf:resource="http://scripts.sil.org/pub/OFL/ShareAlike"/>
<cc:requires rdf:resource="http://scripts.sil.org/pub/OFL/DerivativeRenaming"/>
<cc:requires rdf:resource="http://scripts.sil.org/pub/OFL/BundlingWhenSelling"/>
</cc:License>
</rdf:RDF>
</metadata>
<g transform="translate(0 -1031.4)">
<path d="m12.551 1041.1c0 3.3103-2.6863 6-5.9695 6-3.1838 0-5.8701-2.6897-5.8701-6 0-3.3109 2.6863-6.0004 5.8701-6.0004 3.2832 0 5.9695 2.6895 5.9695 6.0004z" fill="#B2B6BC"/>
<path d="m12.551 1041.1c0 3.3103-2.6863 6-5.9695 6-3.1838 0-5.8701-2.6897-5.8701-6 0-3.3109 2.6863-6.0004 5.8701-6.0004 3.2832 0 5.9695 2.6895 5.9695 6.0004z" fill="none"/>
<path d="m8.0738 1035.9h-0.29848c-0.09965 0.1027-0.09965 0.1027-0.09965 0.3079v0.1027h-0.09965c0-0.1027-0.09964-0.1027-0.29848-0.1027h-0.19883-0.59696c-0.29848 0.1027-0.69647 0.2053-0.69647 0.308-0.09965 0.1026-0.09965 0.2052-0.09965 0.3128v0.1026h-0.09965c-0.09965 0.1027-0.19883 0.1027-0.19883 0.1027v0.1027s0.09965 0.1026 0.19883 0.1026c0.19883 0.1027 0.59696 0.2052 0.59696 0.3079h-0.09965s0 0.1027 0.09965 0.2053c0.09965 0.1027 0.09965 0.1027 0.49745 0.1027 0.19883 0.1027 0.29848 0.1027 0.39813 0.2053h0.29848c0.29848 0 0.39813 0 0.59696-0.1026h0.19883v-0.1027c0.09965 0.1027 0.09965 0 0.09965 0s0.09964-0.1027 0.19883-0.2052v-0.2053-0.2053l-0.09965-0.1026c0.09965 0 0.29848 0.1026 0.29848 0.1026 0.09965 0.2053 0 0.4155-0.09964 0.5171 0 0-0.19883 0.1027-0.29848 0.1027-0.09965 0.1026-0.09965 0.1026-0.19883 0.2053-0.09965 0.2052-0.09965 0.2052-0.39813 0.2052-0.4975 0-0.4975 0-0.89544-0.1027h-0.39813-0.09965c0 0.1027 0.09965 0.1027 0.09965 0.2054 0.09965 0 0.09965 0.1026 0.09965 0.1026s-0.29848-0.1026-0.49745-0.2053c-0.19883-0.1027-0.29848-0.2052-0.39813-0.2052-0.39813-0.2053-0.69642-0.2053-1.0944 0-0.19883 0.1026-0.19883 0.1026-0.19883-0.1027v-0.1026h-0.09965-0.19883c0 0.1026-0.09965 0.1026 0 0.1026v-0.1026-0.1027c0-0.1027 0-0.2052-0.09965-0.2052h-0.19883c0-0.1027 0-0.1027-0.09965-0.1027 0-0.1027 0-0.1027-0.19883-0.1027s-0.29848 0-0.39813 0.1027c-0.29848 0.1027-0.49745 0.4155-0.59696 0.6207 0 0.1026 0 0.1026 0.09965 0.2053h0.19883 0.19883l-0.09965 0.1027c-0.09965 0.1026-0.09965 0.1026-0.29848 0-0.29848 0-0.29848 0-0.39813 0.1026 0 0-0.09965 0.1027 0 0.2054 0 0.1026 0 0.1026-0.09965 0.1026s-0.09965 0-0.09965 0.1027c-0.09965 0.1026-0.09965 0.2053-0.09965 0.4154v0.2054c-0.09964 0-0.09964-0.3079-0.09964-0.4155 0-0.2053 0-0.2053-0.09965-0.2053s-0.09965 0-0.09965 0.1026c-0.09965 0.2054-0.19883 0.6208-0.09965 0.9312v0.2052s-0.09965 0-0.09965-0.1027h-0.09965c0 0.1027-0.09965 0.5176-0.09965 0.931v0.5176 0.3079 0.308c0.19883 0.8274 0.59696 1.8621 1.1939 2.6895 0.19883 0.2054 0.69642 0.7239 0.89544 0.9312 0.89539 0.6206 1.7908 1.0342 2.7858 1.1378 1.6914 0.2052 3.1837-0.308 4.3776-1.4482 0.59696-0.5176 1.0944-1.2414 1.3929-1.8621 0.19883-0.3128 0.29848-0.8275 0.39813-1.4482 0.09964-0.308 0.09964-1.3451 0-1.6554-0.09965-0.7243-0.29848-1.4482-0.59696-2.0689-0.09965-0.2053-0.29848-0.4154-0.49745-0.7244-0.09964-0.1027-0.29848-0.3128-0.39813-0.517-0.29848-0.3079-0.29848-0.4155-0.49745-0.4155-0.29848-0.1027-0.69647-0.2052-0.79593-0.1027 0 0.1027 0 0.1027 0.09965 0.2054 0.29848 0.2052 0.4975 0.4154 0.4975 0.517 0.09965 0.1027 0.09965 0.1027-0.09965 0-0.09964-0.1027-0.39813-0.4153-0.59696-0.517-0.09964-0.1027-0.19883-0.1027-0.19883-0.2054 0-0.1026-0.09965-0.2052-0.39813-0.3079-0.09964-0.1026-0.19883-0.1026-0.09964-0.1026v-0.1027s-0.09965-0.1026-0.29848-0.2053h-0.19883zm-1.3929 0.6207s0.09965 0.1027 0.19883 0.1027c0 0.1026-0.09964 0.1026-0.19883 0.1026-0.09965 0.1027-0.19883 0.1027-0.19883 0.2053-0.19883 0.1027-0.19883 0.1027-0.29848 0.1027-0.09965-0.1027-0.09965-0.1027-0.09965-0.2052 0 0 0.19883-0.1027 0.29848-0.1027h0.09965c0.09965 0 0.09965 0 0.09965-0.1026 0-0.1027 0.09965-0.1027 0.09965-0.1027zm0.79593 0.6208h0.19883c0.09965 0.1026 0.19883 0.2052 0.19883 0.3079h-0.09965c-0.09965-0.1027-0.09965-0.1027-0.19883-0.1027h-0.29848-0.09965c0-0.1027 0-0.1027 0.09965-0.2052h0.19883zm1.6914 0.2052h0.09965l0.09965 0.1027c0.09965 0.1026 0.19883 0.1026 0.19883 0.2053l0.09964 0.1026c0 0.1027-0.19883 0.2054-0.29848 0.308-0.09965 0.1027-0.29848 0.1027-0.29848 0.1027l0.09964-0.1027c0.09965-0.2053 0.19883-0.308 0.09965-0.5176 0-0.1026-0.09965-0.1026-0.09965-0.1026v-0.1027zm-7.064 0.308h-0.19883c-0.19883 0.1026-0.29848 0.2052-0.29848 0.4153l0.19883-0.1026c0.19883-0.1027 0.29848-0.2054 0.29848-0.2054v-0.1026zm1.2934 1.0346h0.09965s-0.39813 0.4155-0.59691 0.5171c-0.09965 0.1026-0.19883 0.2053-0.19883 0.4154v0.1027c0 0.1027-0.09964-0.1027-0.09964-0.1027 0-0.1026 0.09964-0.3128 0.19883-0.4154 0-0.1027 0.09965-0.1027 0.09965-0.2052 0 0 0.09965 0 0.19883-0.1027 0.09965-0.2052 0.19883-0.2052 0.29848-0.2052zm2.1888 0.3079h0.29848c0.09964 0.1027 0.19883 0.1027 0.19883 0.2053l0.09965 0.1027h-0.09965c-0.09965-0.1027-0.09965 0-0.09965 0 0 0.1027 0 0.1027-0.19883 0-0.09965-0.1027-0.39813-0.2053-0.39813-0.308h0.09965s0.09965-0.1027 0.09965 0zm3.1838 0s0.09965 0 0.19883 0.1027c0.09965 0 0.19883 0.1026 0.19883 0.1026 0.09964 0.1027 0.09964 0.1027 0.09964 0.2052v0.1027c0 0.1027 0 0.1027-0.09964 0.1027h-0.09965v-0.2054c0-0.2052 0-0.2052-0.19883-0.2052-0.19883 0-0.19883 0-0.19883 0.1027-0.09964 0-0.09964 0.1027-0.09964 0.1027s-0.09965-0.1027-0.19883-0.1027l-0.19883-0.1027h0.09965l0.09964-0.1026 0.09965-0.1027h0.29848zm-4.3777 0.4155h0.09964 0.19883c0.09965 0.1026 0.39813 0.3078 0.39813 0.4154 0.19883 0.1027 0.19883 0.4155 0.19883 0.6207h-0.09965v-0.2052c-0.09965-0.2053-0.09965-0.2053-0.29848-0.4155-0.09965-0.1026-0.39813-0.1026-0.39813-0.1026-0.09964 0.1026-0.19883 0.1026-0.39813 0.2053h-0.29848c-0.09965 0.1026-0.29848 0.3079-0.29848 0.4154 0 0.1027 0 0.1027 0.09965 0.2053s0.09965 0.1026 0.29848 0.1026 0.19883 0 0.19883-0.2053c0-0.1027 0-0.1027-0.09965-0.1027-0.09964 0-0.09964-0.1026 0-0.1026 0.09965-0.1027 0.09965-0.1027 0.19883-0.1027 0.09965 0 0.19883 0 0.29848 0.1027 0.09965 0 0.19883 0.1026 0.19883 0.1026v0.2053c0.09964 0.1026 0 0.1026 0 0.1026-0.19883 0.1027-0.29848 0.2052-0.49745 0.3079 0 0-0.09965 0-0.09965 0.1027-0.09965 0-0.09965 0.1026-0.29848 0.1026h-0.39813c-0.39813-0.1026-0.59696-0.1026-0.59696-0.308-0.09965-0.2052-0.09965-0.2052 0.09965-0.1026 0.09965 0.2052 0.29848 0.2052 0.49745 0.2052h0.09965v-0.2052c-0.29848-0.2053-0.39813-0.308-0.39813-0.6208 0-0.1027 0-0.2052 0.09964-0.2052 0.09965-0.2054 0.19883-0.4155 0.29848-0.4155v0.1027h0.29848c0.19883-0.1027 0.29848-0.1027 0.39813 0 0.09965 0 0.19883-0.1027 0.19883-0.1027v-0.1027zm3.4822 0 0.09965 0.1026c0.09965 0 0.09965 0.1027 0.19883 0.1027-0.09965 0.1026-0.39813 0.1026-0.49745 0-0.09965 0-0.09965 0 0 0 0-0.1027 0.09965-0.1027 0.09965-0.2053h0.09965zm3.5817 0.2053s0.09964 0 0.09964 0.1026c0.09966 0.2054 0.19883 0.5172 0.19883 0.7239 0 0.2053 0 0.3128-0.09966 0.2053 0-0.1026-0.09965-0.2053-0.19883-0.2053-0.09965 0-0.09965 0.1027-0.19883 0.1027 0 0-0.19883 0.1026-0.29848 0.2052h-0.19883l-0.09965-0.1027h0.09965l0.09965-0.1026c0.09964 0 0.29848-0.3079 0.29848-0.5171v0h0.19883l0.09966-0.1026v-0.2054-0.1026zm-9.0538 0.2052c0 0.1027 0.09965 0.2053 0.09965 0.308v0.2052 0.3079s-0.09965-0.1027-0.19883-0.3079c-0.09965-0.1027-0.09965-0.1027-0.09965-0.2052 0.09965-0.1027 0.09965-0.308 0.19883-0.308zm-0.59696 0.9311l0.09965 0.1027c0.09965 0.1027 0.39813 0.2052 0.69647 0.3079 0.09964 0.1026 0.19883 0.1026 0.19883 0.1026s-0.29848 0.1027-0.39813 0.1027c-0.19883-0.1027-0.29848-0.1027-0.29848-0.2052 0 0-0.09964-0.1027-0.19883-0.2053-0.09965-0.1027-0.09965-0.2053-0.09965-0.2053s-0.09965 0 0 0zm3.2833 0.1027c0.09965 0.1027 0.09965 0.517 0 0.6207 0 0.2052-0.19883 0.517-0.39813 0.7238 0 0.1027-0.29848 0.3079-0.39813 0.3079h-0.09965s0.09965-0.1026 0.29848-0.3079c0.09965 0 0.19883-0.1026 0.29848-0.2053 0-0.1026 0.09965-0.2053 0-0.3079 0-0.1026 0-0.1026-0.09965-0.1026 0 0.1026-0.09965 0.1026-0.19883 0.1026 0 0.1027-0.09964 0.1027-0.09964 0.1027s0-0.1027 0.09964-0.2052c0.19883-0.2053 0.39813-0.4155 0.49745-0.6207l0.09965-0.1027zm1.3929 0c0.09964 0.1027 0.09964 0.1027 0.19883 0.2052 0.09965 0.2053 0.09965 0.6207 0 0.8275-0.09965 0.1027-0.09965 0.1027-0.09965 0v-0.2053c-0.09964 0-0.09964-0.1027-0.09964-0.2052 0.09964-0.1027 0-0.2054-0.19883 0-0.09965-0.1027 0-0.4155 0.09965-0.5172l0.09965-0.1027zm-5.0741 0s0 0.1027 0.09965 0.2052c0 0.1027 0.09965 0.2053 0.19883 0.3079 0.09965 0.1027 0.19883 0.1027 0.19883 0.2053h0.09965v0.2053h0.19883 0.19883 0.29848c0.09965 0.1027 0.29848 0.1027 0.39813 0.1027l0.09964 0.1027s-0.19883 0.1026-0.4975 0.1026c0 0.1027-0.19883 0.1027-0.29848 0.1027-0.29848 0-0.39813 0-0.69642-0.1027-0.19883-0.1026-0.29848-0.3079-0.39813-0.7243 0-0.2053 0-0.308 0.09965-0.5171zm8.2579 0.2052s0.09964 0 0.19883 0.1027c0 0 0.19883 0.2052 0.29848 0.3079 0.19883 0.1026 0.29848 0.2053 0.29848 0.2053h0.09965c0.09964-0.1027 0-0.308-0.09965-0.4155v-0.1026s0.09965 0 0.09965 0.1026c0 0 0.09964 0.2052 0.19883 0.4155v0.4154c0.09966 0.1027 0.09966 0.2053 0.09966 0.3079 0.09965 0.2052-0.19883 0.6207-0.59696 0.8274-0.19883 0.2053-0.19883 0.2053-0.49745 0.2053-0.39813 0.1027-0.59696 0-0.79598-0.1026-0.19883-0.1027-0.19883-0.2052-0.09964-0.2052v-0.1027 0.1027c0.09964 0 0.39813 0.1026 0.69642 0 0.19883 0 0.39813-0.1027 0.39813-0.2054 0.09965-0.1026 0.09965-0.2052 0.09965-0.2052-0.09965 0-0.09965 0 0-0.1027 0.19883-0.2053 0.19883-0.2053 0.19883-0.4154-0.09966-0.3079-0.19883-0.5176-0.39813-0.6207-0.19883 0-0.19883-0.1027-0.09965-0.1027 0.09965 0 0.09965 0 0.09965-0.1026 0 0 0-0.1027-0.09965-0.2052-0.09964 0-0.09964-0.1027-0.09964-0.1027zm1.5919 1.3446h0.09964v0.2053c0 0.1026-0.09964 0.1026-0.09964 0.2052-0.09965 0.1027-0.19883 0.1027-0.19883 0.1027s0.09964-0.3079 0.09964-0.4155l0.09965-0.1027zm-7.6609 0.3078h0.09964v0.1027s0 0.1027-0.19883 0.1027l-0.19883 0.1026-0.09965-0.1026s-0.09965 0-0.09965-0.1027c-0.09964 0-0.09964 0 0.19883-0.1027h0.29848zm3.8802 0.7245s0.09964 0.1026 0.19883 0.1026c0.19883 0.1027 0.19883 0.1027 0 0.1027-0.29848 0-0.39813 0-0.39813 0.2053h-0.09965l0.09965-0.3128c0-0.1027 0.09965-0.1027 0.19883-0.1027zm-4.8751 0.1026l0.09965 0.1027s0 0.1026-0.09965 0.1026c-0.19883 0.1027-0.19883 0.2054-0.29848 0.3079h-0.09965c0-0.1026-0.09965-0.1026-0.09965-0.2052v-0.1027h0.09965c0.09965 0 0.19883-0.1026 0.29848-0.1026 0.09964 0 0.09964-0.1027 0.09964-0.1027zm2.0893 0.4155s-0.09965 0.1026-0.29848 0.2053c-0.49745 0.3079-0.69642 0.4155-0.79593 0.7243-0.09965 0.1027-0.09965 0.2053 0 0.3079 0.09964 0.1026 0.09964 0.1026 0 0.1026-0.09965-0.1026-0.19883-0.2052-0.19883-0.3078 0-0.1027 0-0.3079 0.09965-0.4155 0.19883-0.3079 0.09965-0.5176-0.29848-0.5176-0.09965 0-0.09965 0 0 0 0.09965-0.1026 0.39813-0.1026 0.69642 0 0.29848 0 0.59696 0 0.69646-0.1026h0.09965zm3.8802 0.1026h0.19883 0.49745c0.29848 0 0.39813 0 0.29848 0.1027h-0.39813c-0.19883 0-0.59691-0.1027-0.59691-0.1027z" fill="#B2B6BC"/>
<path d="m2.9997 1037.3c-0.09965 0.1027-0.09965 0.1027 0 0.1027h0.49745v-0.1027h-0.49745z" fill="#37abc8"/>
<g transform="matrix(.54649 0 0 -.56502 -7.5113 1464.5)" clip-path="url(#id140)">
<g transform="translate(190.72 758.81)">
<path d="m0 0-4.924-14.087-4.598 14.087h-4.695l7.14-19.082-0.057-0.132s-1.438-3.892-2.74-4.835c-1.002-0.512-3.347-0.474-4.235-0.413v-3.597c1.55 2e-3 5.196-0.098 6.37 0.646 1.473 0.931 1.802 1.333 2.809 3.375 1.097 2.223 9.515 24.038 9.515 24.038h-4.585zm-23-3.177v3.176h-4.401v-19.217h4.401v7.316c0 1.285 0.121 2.414 0.475 3.346 1.325 3.496 5.022 4.49 6.934 4.773l-1.51 3.673c-1.535-0.265-4.24-1.006-5.899-3.067zm-75.808-12.646c-3.384 0-5.748 2.763-5.748 6.22 0 3.384 2.328 6.15 5.53 6.15 2.218 0 3.638-0.982 4.984-2.402l2.729 2.947c-1.783 1.964-4.039 3.31-7.677 3.31-5.748 0-9.968-4.583-9.968-10.077 0-5.493 4.22-9.968 9.932-9.968 3.745 0 5.966 1.492 7.858 3.602l-2.657 2.618c-1.382-1.418-2.909-2.4-4.983-2.4zm63.748 8.02c-0.073 0.704-0.231 0.904-0.475 1.523-0.241 0.618-0.571 1.158-0.98 1.618-0.414 0.461-0.906 0.82-1.475 1.076-0.569 0.253-1.219 0.381-1.948 0.381-1.358 0-2.48-0.467-3.366-1.402-0.884-0.934-1.426-1.691-1.62-3.196h9.864zm3.784 1.813c0.388-1.249 0.583-2.566 0.583-3.948 0-0.194-6e-3 -0.395-0.016-0.601-0.014-0.206-0.033-0.418-0.057-0.637h-14.121c0.244-1.576 0.868-2.784 1.874-3.619 1.008-0.839 2.227-1.258 3.659-1.258 1.091 0 2.038 0.195 2.839 0.583s1.588 0.957 2.363 1.711l2.587-2.294c-0.924-1.091-2.021-1.965-3.297-2.62-1.272-0.655-2.794-0.984-4.565-0.984-1.384 0-2.676 0.246-3.877 0.729-1.2 0.485-2.243 1.165-3.13 2.039-0.885 0.873-1.583 1.921-2.091 3.146-0.51 1.226-0.765 2.58-0.765 4.06v0.074c0 1.381 0.23 2.679 0.691 3.893 0.461 1.213 1.11 2.275 1.947 3.183 0.838 0.912 1.825 1.626 2.966 2.149 1.14 0.521 2.402 0.782 3.786 0.782 1.527 0 2.869-0.28 4.021-0.837 1.152-0.559 2.111-1.311 2.876-2.256 0.765-0.947 1.341-2.045 1.727-3.295zm-28.264-8.136-5.168 14.125h-4.732l7.899-19.364h3.966l7.86 19.364h-4.623l-5.202-14.125zm-14.484 4.479c0 0.85-0.145 1.65-0.437 2.401-0.291 0.753-0.698 1.407-1.219 1.966-0.522 0.558-1.14 1.001-1.856 1.329-0.715 0.328-1.511 0.491-2.385 0.491-0.873 0-1.668-0.163-2.382-0.491-0.716-0.328-1.329-0.764-1.84-1.31-0.508-0.547-0.898-1.189-1.163-1.929-0.269-0.74-0.401-1.535-0.401-2.385v-0.072c0-0.825 0.146-1.614 0.437-2.365 0.29-0.754 0.696-1.413 1.219-1.984 0.521-0.57 1.14-1.018 1.857-1.345 0.715-0.328 1.497-0.493 2.347-0.493 0.897 0 1.704 0.165 2.419 0.493 0.718 0.327 1.33 0.769 1.839 1.327s0.896 1.206 1.165 1.948c0.266 0.739 0.4 1.522 0.4 2.345v0.074zm3.639 3.951c0.509-1.203 0.764-2.496 0.764-3.879v-0.072c0-1.359-0.262-2.644-0.782-3.857-0.523-1.213-1.238-2.275-2.148-3.185-0.909-0.912-1.997-1.631-3.255-2.166-1.263-0.533-2.634-0.802-4.115-0.802-1.455 0-2.808 0.261-4.056 0.784-1.251 0.521-2.331 1.232-3.24 2.129-0.911 0.898-1.619 1.954-2.13 3.165-0.51 1.214-0.764 2.5-0.764 3.858v0.074c0 1.383 0.26 2.682 0.783 3.894 0.521 1.213 1.238 2.275 2.147 3.184 0.91 0.911 1.991 1.633 3.239 2.165 1.25 0.535 2.615 0.802 4.095 0.802s2.845-0.261 4.094-0.782c1.249-0.523 2.329-1.237 3.239-2.149 0.909-0.908 1.62-1.964 2.129-3.163zm-42.501-4.005c-0.569 0.423-1.206 0.782-1.911 1.074-0.704 0.29-1.406 0.545-2.11 0.764-0.558 0.194-1.097 0.376-1.619 0.547-0.522 0.168-0.983 0.357-1.383 0.562-0.401 0.207-0.723 0.437-0.964 0.693-0.244 0.253-0.364 0.551-0.364 0.892v0.071c0 0.558 0.235 1.02 0.709 1.383 0.473 0.363 1.135 0.546 1.984 0.546 0.802 0 1.673-0.164 2.62-0.491 0.946-0.327 1.88-0.77 2.803-1.328l1.746 3.13c-1.018 0.679-2.146 1.213-3.385 1.601-1.236 0.388-2.463 0.583-3.675 0.583-0.947 0-1.838-0.134-2.675-0.401-0.837-0.268-1.565-0.656-2.184-1.165-0.619-0.51-1.104-1.121-1.455-1.837-0.353-0.718-0.529-1.536-0.529-2.456v-0.073c0-0.924 0.183-1.699 0.547-2.332 0.363-0.629 0.831-1.157 1.401-1.58 0.57-0.427 1.213-0.773 1.928-1.039 0.716-0.267 1.426-0.498 2.13-0.692 0.558-0.17 1.098-0.333 1.62-0.491 0.521-0.158 0.981-0.339 1.382-0.546 0.401-0.206 0.715-0.443 0.947-0.709 0.229-0.268 0.345-0.584 0.345-0.947v-0.072c0-0.632-0.261-1.134-0.783-1.51-0.521-0.377-1.254-0.564-2.201-0.564-0.995 0-2.032 0.199-3.111 0.601-1.081 0.4-2.143 0.989-3.186 1.764l-1.965-2.985c1.214-0.945 2.529-1.662 3.95-2.147 1.418-0.486 2.819-0.727 4.203-0.727 0.994 0 1.929 0.125 2.803 0.382 0.872 0.255 1.63 0.629 2.273 1.129 0.644 0.497 1.147 1.12 1.512 1.874 0.364 0.75 0.545 1.638 0.545 2.657v0.071c0 0.874-0.181 1.615-0.545 2.22-0.365 0.608-0.833 1.123-1.403 1.548zm-20.74-9.517h4.4043v19.217h-4.4043v-19.217zm-2.55 12.917c0-7.203-5.53-12.767-13.533-12.767h-7.743c1.563 1.043 2.867 2.436 3.802 4.075h3.941c5.348 0 8.84 3.6 8.84 8.62 0 5.019-3.492 8.694-8.84 8.694h-5.02v-3.745c-0.737 0.917-1.596 1.731-2.568 2.401-0.597 0.411-1.237 0.764-1.906 1.064v4.353h9.494c8.003 0 13.533-5.492 13.533-12.695" fill="#B2B6BC"/>
</g>
</g>
</g>
</svg>
