<?xml version="1.0" encoding="UTF-8"?>
<!DOCTYPE svg  PUBLIC '-//W3C//DTD SVG 1.1//EN'  'http://www.w3.org/Graphics/SVG/1.1/DTD/svg11.dtd'>
<svg width="142.48px" height="47.981px" enable-background="new 0 0 142.484 47.981" version="1.1" viewBox="0 0 142.484 47.981" xml:space="preserve" xmlns="http://www.w3.org/2000/svg">
			<path d="M0.008,9.337v18.317h5.147V9.337H0.008z" fill="#B2B6BC"/>
			<path d="m12.819 18.566h-1.582l5.28-9.229h-3.921c-1e-3 4e-3 -5.348 9.229-5.348 9.229l5.805 9.088h5.668l-5.902-9.088z" fill="#B2B6BC"/>
		<path d="m119.19 9.329v11.722c-1.46-2.205-7.725-11.706-7.725-11.706h-4.266v18.31h4.591v-11.775c1.461 2.178 7.886 11.775 7.886 11.775h4.104v-18.326h-4.59z" fill="#B2B6BC"/>
	<path d="M71.942,9.329h-4.507v18.325h10.924v-3.086h-6.417V9.329z" fill="#B2B6BC"/>
	<path d="m30.418 9.345l-8.186 18.31h3.635l2.004-4.674 6.315-7e-3 1.877 4.681h5.239l-8.031-18.31h-2.853zm2.658 10.983h-4.089l2.116-4.874 1.973 4.874z" fill="#B2B6BC"/>
	<path d="m90.766 9.345l-8.186 18.31h3.635l2.002-4.674 6.314-7e-3 1.879 4.681h5.246l-8.035-18.31h-2.855zm2.655 10.983h-4.084l2.118-4.874 1.966 4.874z" fill="#B2B6BC"/>
	<path d="m47.549 9.252v18.402h4.509v-6.478h2.164c0.191 0.013 1.646 0.069 3.117-0.417 1.493-0.498 3.857-2.438 3.857-5.536 0-1.572-0.391-2.854-1.17-3.812-1.194-1.471-3.18-2.16-6.244-2.16h-6.233zm5.782 3.018c2.281 0 3.3 0.881 3.3 2.844 0 1.095-0.326 1.965-0.938 2.516-0.457 0.413-1.069 0.536-2.625 0.536h-1.01v-5.896h1.273z" fill="#B2B6BC"/>
<path d="m131.13 0h-3.217c7.591 4.46 12.281 9.743 12.281 15.4 0 16.68-35.424 28.972-78.64 28.972-24.966 0-47.215-4.325-61.557-11.067v3.514c14.841 6.829 36.917 11.163 61.555 11.163 46.669 0 80.929-14.229 80.929-31.762 0-5.926-4.142-11.473-11.351-16.22z" clip-rule="evenodd" fill="#B2B6BC" fill-rule="evenodd"/>
</svg>
