<?xml version="1.0" encoding="UTF-8"?>
<svg enable-background="new 0 0 786 312" version="1.1" viewBox="0 0 786 312" xml:space="preserve" xmlns="http://www.w3.org/2000/svg">
<path d="m581.12 168.76c-2.294-5.333-5.027-20.832-0.529-29.725 5.375 6.866 11.412 15.666 0.512 29.766m-42.287-90.663c-6.55 23.434-7.433 64.028-0.762 80.978 18.269-35.515 3.149-74.515 0.749-81.015m-46.238 68.3c1.408-35.449 1.391-60.704-6.245-74.944-6.503 19.244-3.217 39.344 6.283 74.944m13.893 34c11.963 15.7 18.6 7.3 20.32-0.056-15.281-58.398-5.091-89.401 5.318-124.84-0.034-0.027-0.057-0.041-0.086-0.064-0.558-0.396-29.946 11.465-33.041 12.704 23.631 37.952-4.704 80.952 7.496 112.25m142.78-5.2c21.056-15.929 19.251-49.084 22.027-66.422-0.031-0.011-0.062-0.018-0.089-0.029 0 0-32.757 12.609-36.656 14.1 16.87 8.951 22.438 27.251 14.738 52.351m-186.84-4.377c6.621 15 18.5 8.9 23.4 2.6-6.576-13.312-8.283-18.969-11.678-29.563-10.824 1.64-19.077 10.24-11.677 26.94m138.57 10.3c15.156-15.149 23.204-45.833 23.729-61.914-0.031-9e-3 -0.067-0.02-0.099-0.03 0 0-30.786 11.828-33.792 13 12.687 13.3 10 28.893-1.325 48.19 3.318 4.054 8.514 2.654 11.514 0.754m79.954-48.7c1.434 14.088-2.315 27.026-6.38 33.46 13.026 1.54 21.426-20.06 6.426-33.46m-48.666 10.4c0.125 10.38-6.23 24.838-6.23 24.838 13.091 8.762 19.096-7.738 6.196-24.838m-59.674 36.2c-11.136-20.524-7.454-42.382 2.511-58.049-0.022-9e-3 -0.045-0.024-0.059-0.031 0 0-11.882 4.437-13.96 5.2-1.079 17.622-6.245 35.375-14.739 50.194 2.642 7.986 22.621 11.886 26.221 2.686m94.156 1.3c-15.442 14.661-31.02 15.48-47.111 2.104-8.465 11.984-19.54 17.09-38.901 10.175-11.21 8.832-32.9 9.027-44.692-1.784-11.887 18.051-30.601 15.655-42.494-2.717-7.698 14.656-22.035 15.174-33.625 4.851-10.523 12.843-24.83 14.076-33.245 1.3-3.655 12.401-19.615 19.827-37.872 9.849-5.669 10.216-23.591 19.433-43.73 11.022-26.322 25.071-47.715 20.7-47.295-36.208l-10.792-2.75s1.3 36.2 0.9 40.351c-0.473 12.912-10.807 15.281-14.159 16.271-9.771 2.875-18.618-5.063-19.839-11.892-4.573-25.52-9.443-54.626-10.794-55.062-6.668-2.156-12.8 61.046-30.331 75.127-19.099 15.337-31.823 3.552-45.281-5.052l-11.624 12.312c-4.8-26.043-8.23-50.819-1.674-74.614-8.507 2.172-20.931-1.585-22.731-7.589 6.092-8.381 16.091-8.186 21.559-7.322 3.14-10.193 3.93-22.564 1.206-35.625 17.524 0.5 18.7 13.6 18.8 17.3 0.156 7.827-1.906 13.445-2.654 15.857 8.015-3.701 14.062-1.906 18.3 0.323 4.245 2.2 5.8 6.2 6.1 9.4-7.669 3.69-15.646 4.967-23.598 4.492-12.94 32.4 7.7 54.6 25.8 59.741 9.135-59.097 3.955-128.15 18.514-160.26-0.025-0.022-0.046-0.041-0.068-0.063l-57.909 22.818c-4.419 10.05-6.857 20.936-8.36 32-1.544 0.678-53.2 20.066-52.968 21.296 1.961 10.3 2.1 20.5 0 30.627-0.081 0.031-0.169 0.069-0.254 0.1-7.102 2.844-15.369 5.043-21.055 10.426-4.643 4.4 6.2 8.3 9.3 9.195 2.637 0.7 5.4 0.8 8.1 0.8 1.302-0.066 2.58-0.262 3.845-0.577-0.483 1.755-0.915 3.524-1.295 5.307-1.619 7.061-2.144 14.337-2.32 21.6-0.393 16 2.4 32.1 5.3 47.756 5.369-2.114 10.736-4.228 16.104-6.342 0.991-0.363 1.978-0.73 2.931-1.077 4.134 2.6 8.4 5.1 13.1 6.612 10.172 3.3 20.965-2.745 30.151-6.301 12.809-4.965 25.613-9.961 38.315-15.201 1.534 2.4 3.7 4.4 6.8 6.073 9.809 5.2 27.322-5.271 35.412-8.429 2.103-0.819 4.21-1.648 6.318-2.473 1.731 2.8 3.9 5.2 6.8 6.927 2.875 1.7 6.3 1.9 9.6 1.471 1.839-0.234 3.628-0.864 5.375-1.453 9.281-3.079 18.375-6.931 27.462-10.543 14.452 2.1 27.167-4.086 41.581-9.723 0.47-0.186 0.95-0.36 1.417-0.544 6.547 1.5 12.7 0.9 18.826-0.8-0.011 9e-3 -0.016 9e-3 -0.022 0.012 0.016-3e-3 0.026-0.012 0.042-0.017 5.425-1.493 10.903-3.809 16.741-6.164 8.086 6.9 28.562-3.176 31.341-4.246 10.404 7.7 30.793-1.254 33.399-2.776 7.005 7.8 16.1 12.1 27.1 8.29 5.921-2.057 11.804-4.246 17.666-6.499 8.633 4.5 18.8 5.1 28.4 2.6 4.284-1.102 8.541-2.53 12.773-4.108 5.024 1.5 10 2.4 15.4 2.165 9.011-0.435 18.56-5.607 26.834-9.038 10.854 8.6 33.7 1.9 46.41-3.758 12.612 5.3 26.1 6.7 39.8 4.128 3.892-0.72 47.888-17.181 68.503-25.798-17.048 6.022-37.188 6.122-55.588-3.878m-446.24-82.154l-6.013 85.984c9.028-14.13 13.354-66.23 6.054-86.03m219.27 89.655c1.023 3.7 10.7 2.8 11.859-2.976-10.96-15.821-18.945-51.874 18.853-56.72-5.887-31.72-1.339-55.35 12.431-77.643-0.018-0.016-0.036-0.03-0.05-0.046-0.452-0.387-57.232 21.681-57.918 22.8-8.957 14.792-13.439 30.358-14.457 46.515-0.011 0-0.028 0.01-0.044 0.01 14.429-0.795 20.758 36.805 29.358 68.105m-173.06 28.153s5.2 7.9 9.3 2.676c4.415-5.469-3.265-56.71-3.383-57.471-0.034 0-0.073 2e-3 -0.119 0-2.49 0.222-6.428 2.317-8.553 3.133-0.562 0.215-1.124 0.433-1.683 0.654 1.696 4 2.9 8.8 3.6 14.4 1.72 13.255 0.8 36.655 0.8 36.655m36.139-58.165c11.434 14.2 15.4 29.5 9.8 48.9 7.196 10.1 12.7 8.9 21.1 0.656-16.892-11.481-15.763-54.056 12.524-69.895-4e-3 0-9e-3 -7e-3 -0.017-0.011 0.098-0.059-0.917 0.282-1.057 0.333-6.835 2.406-45.038 15.761-56.1 22.184-0.229 0.092-1.501 0.887-2.184 1.3 3.435 0.5 6.8 1.2 10 2.31l5.934-5.777zm98.321 33.727c3.882 2.3 15.6 0.9 18.516-11.777-5.987-19.448-7.294-26.75-10.064-39.302-12.913 2.417-19.812 44.417-8.412 51.117m-44.462 10.2c5.011 3 22 4.4 24.061-6.534-5.829-45.94 14.096-70.88 26.727-74.999-0.324 0.099-0.633 0.197-0.934 0.3-1.022 0.349-3.057 1.067-3.057 1.067l-52.252 18.234c21.739 12.732 22.717 46.232 5.417 61.932m-11.358-8.2c16.959-17.95 9.975-37.277 2.146-38.292-13.741 12.292-11.188 32.092-2.188 38.292m371.14-62.2c0.653-0.085 0.906-0.203 1.001-0.28 0.248-0.17 0.343-0.44 0.302-0.849-0.024-0.409-0.165-0.654-0.409-0.745-0.265-0.135-0.609-0.163-1.098-0.108l-1.567 0.172 0.197 1.995 1.574-0.166zm38.404-17.1c-0.043-0.073-0.078-0.146-0.119-0.217l-31.377 11.923c1.263 1.4 2.1 3.2 2.3 5.265 0.537 5.146-3.225 9.78-8.373 10.3-5.166 0.532-9.771-3.217-10.29-8.352-0.475-4.439 2.233-8.444 6.253-9.836l-0.014-3e-3 -15.765 6c0.956 1.8 1.8 3.6 2.5 5.51l-4e-3 2e-3c3.95 10.8 3.7 23.983-2.426 38.2 41.566-1.892 59.667-32.292 57.267-58.792m-39.255 10.21c4.291-0.455 8.1 2.7 8.6 7 0.452 4.288-2.688 8.151-6.974 8.592-4.309 0.433-8.146-2.689-8.579-6.967-0.473-4.335 2.708-8.135 6.908-8.635m-2.556 3.736l0.893 8.702 1.563-0.146-0.369-3.669 0.779-0.098c0.179-4e-3 0.3 0 0.4 0.1 0.048 0 0.2 0.1 0.4 0.463l2.163 2.807 1.805-0.188-2.725-3.511c-9e-3 -0.025-0.021-0.053-0.033-0.075 0.246-0.096 0.43-0.199 0.572-0.319 0.692-0.532 0.992-1.282 0.885-2.219-0.107-0.969-0.549-1.635-1.306-1.998-0.475-0.223-1.088-0.298-1.898-0.229l-3.129 0.38z" fill="#B2B6BC"/>
</svg>
